<svg xmlns="http://www.w3.org/2000/svg" viewBox="7 7 1481 885">
  <defs>
    <pattern id="seeds" width="30" height="30" patternUnits="userSpaceOnUse">
      <circle cx="12" cy="8" r="5" fill="#eac305ff" />
      <circle cx="25" cy="7" r="5" fill="#e3bd03ff" />
      <circle cx="11" cy="19.5" r="5" fill="#eac305ff" />
      <circle cx="26" cy="28" r="5" fill="#eac305ff" />
      <circle cx="-4" cy="28" r="5" fill="#eac305ff" />
      <circle cx="26" cy="-2" r="5" fill="#eac305ff" />
      <circle cx="-4" cy="-2" r="5" fill="#eac305ff" />
      <circle cx="5" cy="5" r="5" fill="#f8d00cff" />
      <circle cx="19" cy="5" r="5" fill="#f8d00cff" />
      <circle cx="18" cy="14" r="5" fill="#f8d00cff" />
      <circle cx="5" cy="15" r="5" fill="#f8d00cff" />
      <circle cx="5" cy="25" r="5" fill="#f8d00cff" />
      <circle cx="17" cy="25" r="5" fill="#f8d00cff" />
      <circle cx="25" cy="20" r="5" fill="#f8d00cff" />
      <circle cx="12" cy="2" r="5" fill="#fbe265ff" />
      <circle cx="12" cy="32" r="5" fill="#fbe265ff" />
      <circle cx="27" cy="11" r="5" fill="#fbe265ff" />
      <circle cx="-3" cy="11" r="5" fill="#fbe265ff" />
    </pattern>

    <pattern id="bubbles"
      x="0" y="0"
      width="80" height="80"
      patternUnits="userSpaceOnUse">

      <circle cx="28" cy="60" r="10" fill="#FFD96A">
        <animate attributeName="cy"
          values="60;52;60"
          dur="1.4s"
          repeatCount="indefinite" />
        <animate attributeName="r"
          values="2;8;2"
          dur="2s"
          repeatCount="indefinite" />
      </circle>

      <circle cx="63" cy="30" r="4" fill="#FFD96A">
        <animate attributeName="cy"
          values="60;52;60"
          dur="1.4s"
          repeatCount="indefinite" />
        <animate attributeName="r"
          values="4;6;4"
          dur="0.5s"
          repeatCount="indefinite" />
      </circle>

      <circle cx="12" cy="15" r="3.5" fill="#FFD96A" />
      <circle cx="48" cy="20" r="4.2" fill="#FFD96A" />
      <circle cx="68" cy="42" r="3.8" fill="#FFD96A" />
      <circle cx="28" cy="60" r="4.5" fill="#FFD96A" />
      <circle cx="58" cy="70" r="3.2" fill="#FFD96A" />
      <circle cx="24" cy="28" r="2.4" fill="#F8D15A" />
      <circle cx="38" cy="45" r="2.8" fill="#F8D15A" />
      <circle cx="72" cy="18" r="2.2" fill="#F8D15A" />
      <circle cx="15" cy="48" r="2.5" fill="#F8D15A" />
      <circle cx="44" cy="72" r="2.3" fill="#F8D15A" />
      <circle cx="8" cy="34" r="1.2" fill="#FFE79B" />
      <circle cx="20" cy="8" r="1.0" fill="#FFE79B" />
      <circle cx="34" cy="12" r="1.4" fill="#FFE79B" />
      <circle cx="54" cy="10" r="1.1" fill="#FFE79B" />
      <circle cx="63" cy="30" r="1.3" fill="#FFE79B" />
      <circle cx="75" cy="55" r="1.0" fill="#FFE79B" />
      <circle cx="50" cy="55" r="1.2" fill="#FFE79B" />
      <circle cx="32" cy="52" r="1.0" fill="#FFE79B" />
      <circle cx="10" cy="70" r="1.3" fill="#FFE79B" />
      <circle cx="70" cy="75" r="1.1" fill="#FFE79B" />

    </pattern>
  </defs>
  <g name="vitro">
    <path name="ceramic_hob_border"
      d="M13 854L1017 854C1021 875 1021 888 1004 891L26 891C9 888 9 875 13 854" fill="#000000ff"
      stroke="#484848ff" stroke-width="0" stroke-linecap="butt" stroke-linejoin="miter"
      stroke-dasharray="" />
    <path name="ceramic_hob_foreground"
      d="M13 845L120 133C120 124 135 115 140 116L890 116C895 115 910 124 910 133L1018 845C1021 866 1021 879 1004 882L26 882C9 879 9 866 13 845"
      fill="#444545ff" stroke="#484848ff" stroke-width="0" stroke-linecap="butt"
      stroke-linejoin="miter" stroke-dasharray="" />
    <path name="center" d="M260 440A5 4 0 0 0 770 445 4 3 0 0 0 260 445.1" fill="#00000000"
      stroke="#898888ff" stroke-width="7" stroke-linecap="butt" stroke-linejoin="miter"
      stroke-dasharray="7" />
    <g name="buttons">
      <rect name="button_power_1" x="270" y="795" width="90" height="46" rx="4" ry="4"
        fill="#00000000" stroke="#d3d3d3ff" stroke-width="3" stroke-linecap="butt"
        stroke-linejoin="miter" stroke-dasharray="" />
      <circle name="button_power_2" cx="314.9" cy="818" r="12" fill="#00000000" stroke="#d3d3d3ff"
        stroke-width="2" stroke-linecap="butt" stroke-dasharray="" />
      <line name="button_power_3" x1="315" y1="812" x2="315" y2="822" stroke="#d3d3d3ff"
        stroke-width="2" stroke-linecap="butt" stroke-dasharray="" />
      <rect name="button_minus_1" x="385" y="795" width="76" height="46" rx="4" ry="4"
        fill="#00000000" stroke="#ff0000ff" stroke-width="3" stroke-linecap="butt"
        stroke-linejoin="miter" stroke-dasharray="" />
      <line name="button_minus_2" x1="413" y1="818" x2="433" y2="818" stroke="#ff0000ff"
        stroke-width="2" stroke-linecap="butt" stroke-dasharray="" />
      <rect name="button_plus_1" x="486" y="795" width="76" height="46" rx="4" ry="4"
        fill="#00000000" stroke="#d3d3d3ff" stroke-width="3" stroke-linecap="butt"
        stroke-linejoin="miter" stroke-dasharray="" />
      <line name="button_plus_horizontal" x1="514" y1="818" x2="534" y2="818" stroke="#d3d3d3ff"
        stroke-width="2" stroke-linecap="butt" stroke-dasharray="" />
      <line name="button_plus_vertical" x1="524" y1="808" x2="524" y2="828" stroke="#d3d3d3ff"
        stroke-width="2" stroke-linecap="butt" stroke-dasharray="" />
      <rect name="button_boost_1" x="587" y="795" width="90" height="46" rx="4" ry="4"
        fill="#00000000" stroke="#d3d3d3ff" stroke-width="3" stroke-linecap="butt"
        stroke-linejoin="miter" stroke-dasharray="" />
      <text name="button_boost_2" x="632" y="824" font-size="15" font-family="Arial"
        fill="#d3d3d3ff" text-anchor="middle" stroke="#d3d3d3ff" stroke-width="0"
        stroke-linecap="butt" stroke-linejoin="miter" stroke-dasharray="">
        BOOST
      </text>
      <rect name="button_timer_1" x="702" y="795" width="76" height="46" rx="4" ry="4"
        fill="#00000000" stroke="#ff0000ff" stroke-width="3" stroke-linecap="butt"
        stroke-linejoin="miter" stroke-dasharray="" />
      <circle name="button_time_2" cx="740" cy="818" r="14" fill="#00000000" stroke="#ff0000ff"
        stroke-width="2" stroke-linecap="butt" stroke-dasharray="" />
      <path name="button_time_3" d="M740 808L740 817.8 745.1 823.6999999999999" fill="#00000000"
        stroke="#ff0000ff" stroke-width="2" stroke-linecap="butt" stroke-linejoin="miter"
        stroke-dasharray="" />
    </g>
    <g name="displays">
      <circle name="fire" cx="509" cy="751" r="10" fill="#00000000" stroke="#d3d3d3ff"
        stroke-width="2" stroke-linecap="butt" stroke-dasharray="" />
      <text name="fire_level" x="539" y="765" font-size="48" font-family="Arial" fill="#ff0000ff"
        text-anchor="start" stroke="#d3d3d3ff" stroke-width="0" stroke-linecap="butt"
        stroke-linejoin="miter" stroke-dasharray="">
        5
      </text>
      <text name="timer_time" x="755" y="765" font-size="48" font-family="Arial" fill="#ff0000ff"
        text-anchor="end" stroke="#d3d3d3ff" stroke-width="0" stroke-linecap="butt"
        stroke-linejoin="miter" stroke-dasharray="">
        12
      </text>
      <text name="timer_units" x="760" y="765" font-size="18" font-family="Arial" fill="#ff0000ff"
        text-anchor="start" stroke="#d3d3d3ff" stroke-width="0" stroke-linecap="butt"
        stroke-linejoin="miter" stroke-dasharray="">
        min
      </text>
    </g>
  </g>
  <g name="stewpan">
    <g name="left_handler">
      <path name="inside"
        d="M249.255 193.114L249.255 168.507 204.14100000000002 170.557 185.687 299.059 235.584 313.414 237.498 304.869 220.547 299.743C209.60899999999998 280.604 221.911 221.138 235.174 194.069Z"
        fill="#60605fff" stroke="#7d7d7d00" stroke-width="13.671" stroke-linecap="butt"
        stroke-linejoin="miter" stroke-dasharray="" />
      <path name="base"
        d="M253.356 374.931L143.99099999999999 333.919C120.06799999999998 323.666 109.816 300.426 112.549 275.136L239.685 346.224"
        fill="#a6a5a5ff" stroke="#7d7d7d00" stroke-width="13.671" stroke-linecap="butt"
        stroke-linejoin="miter" stroke-dasharray="" />
      <path name="big_foreground"
        d="M262.925 139.115L180.219 143.214C161.763 143.9 145.36 155.519 136.472 167.821 118.69999999999999 201.314 109.816 250.529 111.86599999999999 279.237 117.333 292.908 122.80099999999999 307.263 138.523 315.463L246.52099999999996 349.639V308.629C226.014 305.21 196.622 303.16 196.622 285.389 193.20499999999998 260.098 205.50900000000001 200.631 217.12900000000002 184.91 221.503 172.061 244.675 177.597 263.541 172.265"
        fill="#cacac9ff" stroke="#7d7d7d00" stroke-width="13.671" stroke-linecap="butt"
        stroke-linejoin="miter" stroke-dasharray="" />
      <path name="curve_1"
        d="M148.09 161.669C174.067 208.149 152.19299999999998 258.049 117.333 281.288"
        fill="#60605f00" stroke="#e4e4e4ff" stroke-width="6.835" stroke-linecap="butt"
        stroke-linejoin="miter" stroke-dasharray="" />
      <path name="curve_2"
        d="M118.28999999999999 283.475C122.18700000000001 301.589 131.824 308.97 155.474 316.49L242.76099999999997 344.925"
        fill="#60605f00" stroke="#e4e4e4ff" stroke-width="6.835" stroke-linecap="round"
        stroke-linejoin="miter" stroke-dasharray="" />
      <line name="line_1" x1="133.055" y1="198.581" x2="150.827" y2="201.314" stroke="#e4e4e4ff"
        stroke-width="6.835" stroke-linecap="round" stroke-dasharray="" />
      <line name="line_2" x1="126.90299999999999" y1="217.035" x2="148.09" y2="220.453"
        stroke="#e4e4e4ff" stroke-width="6.835" stroke-linecap="round" stroke-dasharray="" />
      <line name="line_3" x1="122.119" y1="235.49" x2="141.94" y2="238.227" stroke="#e4e4e4ff"
        stroke-width="6.835" stroke-linecap="round" stroke-dasharray="" />
    </g>
    <g name="right_handler">
      <path name="dark_inside"
        d="M790.608 193.114L790.608 168.507 832.987 173.29 854.175 299.059 804.279 313.414 802.227 305.21 819.316 299.743C830.252 280.604 817.949 221.138 804.961 193.798Z"
        fill="#60605fff" stroke="#7d7d7d00" stroke-width="13.671" stroke-linecap="butt"
        stroke-linejoin="miter" stroke-dasharray="" />
      <path name="base"
        d="M786.506 374.931L895.87 333.919C919.795 323.666 930.049 300.426 927.313 275.136L800.178 346.224"
        fill="#a6a5a5ff" stroke="#7d7d7d00" stroke-width="13.671" stroke-linecap="butt"
        stroke-linejoin="miter" stroke-dasharray="" />
      <path name="big_foreground"
        d="M776.938 139.115L859.644 143.214C878.1 143.9 894.505 148.683 903.389 167.821 921.161 201.314 930.049 250.529 927.997 279.237 922.529 292.908 917.061 307.263 901.34 315.463L793.342 349.639V308.629C813.848 305.21 843.24 303.16 843.24 285.389 846.656 260.098 834.353 200.631 824.101 182.859 818.631 171.922 795.391 177.391 776.254 172.606"
        fill="#cacac9ff" stroke="#7d7d7d00" stroke-width="13.671" stroke-linecap="butt"
        stroke-linejoin="miter" stroke-dasharray="" />
      <path name="curve_1" d="M891.77 161.669C865.796 208.149 887.669 258.049 914.327 275.819"
        fill="#60605f00" stroke="#e4e4e4ff" stroke-width="6.835" stroke-linecap="round"
        stroke-linejoin="miter" stroke-dasharray="" />
      <path name="curve_2"
        d="M925.262 279.919C917.744 301.11 906.124 314.096 884.251 320.248L796.76 346.224"
        fill="#60605f00" stroke="#e4e4e4ff" stroke-width="6.835" stroke-linecap="round"
        stroke-linejoin="miter" stroke-dasharray="" />
      <line name="line_1" x1="906.807" y1="198.581" x2="889.036" y2="201.314" stroke="#e4e4e4ff"
        stroke-width="6.835" stroke-linecap="round" stroke-dasharray="" />
      <line name="line_2" x1="912.959" y1="217.035" x2="891.77" y2="220.453" stroke="#e4e4e4ff"
        stroke-width="6.835" stroke-linecap="round" stroke-dasharray="" />
      <line name="line_3" x1="917.744" y1="235.49" x2="897.921" y2="238.227" stroke="#e4e4e4ff"
        stroke-width="6.835" stroke-linecap="round" stroke-dasharray="" />
    </g>
    <path name="base_1"
      d="M246.52099999999996 305.21C287.53200000000004 500.018 376.391 592.293 519.932 592.293S752.33 500.018 793.342 305.21"
      fill="#ffffff00" stroke="#7d7d7dff" stroke-width="13.671" stroke-linecap="butt"
      stroke-linejoin="miter" stroke-dasharray="" />
    <path name="base_2"
      d="M253.356 305.21C287.53200000000004 500.018 376.391 578.623 519.932 578.623S752.33 500.018 786.506 305.21"
      fill="#a6a5a4ff" stroke="#a6a5a5ff" stroke-width="20.505" stroke-linecap="butt"
      stroke-linejoin="miter" stroke-dasharray="" />
    <path name="inside"
      d="M247.82 269.051C258.551 132.211 372.427 16.763 536.5409999999999 29.613S762.651 126.33099999999999 792.591 200.085 734.832 511.774 571.264 514.986 293.821 485.047 244.608 267.479"
      fill="#948b73ff" stroke="#7d7d7d00" stroke-width="13.671" stroke-linecap="butt"
      stroke-linejoin="miter" stroke-dasharray="" />
    <path name="soup"
      d="M300.517 310.679A2.735 2.735 0 0 0 739.343 310.679 2.735 2.119 0 0 0 300.517 310.679"
      fill="#dbb63dff" stroke="#a8841cff" stroke-width="6.835" stroke-linecap="butt"
      stroke-linejoin="miter" stroke-dasharray="" />
    <path name="bubbles"
      d="M300.517 310.679A2.735 2.735 0 0 0 739.343 310.679 2.735 2.119 0 0 0 300.517 310.679"
      fill="url(#bubbles)" stroke="#a8841cff" stroke-width="6.835" stroke-linecap="butt"
      stroke-linejoin="miter" stroke-dasharray="" />
    <path name="bubbles"
      d="M300.517 310.679A2.735 2.735 0 0 0 739.343 310.679 2.735 2.119 0 0 0 300.517 310.679"
      fill="url(#bubbles)" stroke="#a8841cff" stroke-width="6.835" stroke-linecap="butt"
      stroke-linejoin="miter" stroke-dasharray="" />
    <path name="external_ring_1"
      d="M266.34299999999996 264.882A2.735 2.529 0 0 0 773.52 264.882 2.735 2.305 0 0 0 266.34299999999996 264.882"
      fill="#ffffff00" stroke="#a7a5a5ff" stroke-width="15.721" stroke-linecap="butt"
      stroke-linejoin="miter" stroke-dasharray="" />
    <path name="external_ring_2"
      d="M259.50800000000004 264.2A2.735 2.495 0 0 0 780.356 264.2 2.735 2.372 0 0 0 259.50800000000004 264.2"
      fill="#ffffff00" stroke="#f8f8f8ff" stroke-width="15.721" stroke-linecap="butt"
      stroke-linejoin="miter" stroke-dasharray="" />
    <path name="external_ring_3"
      d="M239.00099999999998 264.2A2.735 2.495 0 0 0 800.861 264.2 2.735 2.372 0 0 0 239.00099999999998 264.2"
      fill="#ffffff00" stroke="#bdbdbdff" stroke-width="27.341" stroke-linecap="butt"
      stroke-linejoin="miter" stroke-dasharray="" />
  </g>
  <g name="cuenco">
    <path name="bowl" d="M1017 278L1017 278A4 4.6 0 0 0 1485 293 4 3.4 0 0 0 1017 278"
      fill="#eee3d2ff" stroke="#188de800" stroke-width="12" stroke-linecap="butt"
      stroke-linejoin="miter" stroke-dasharray="" />
    <path name="ring" d="M1017 278A4 3.4 0 0 0 1485 293 4 3.4 0 0 0 1017 278" fill="#2ca0fd00"
      stroke="#fefbf4ff" stroke-width="12" stroke-linecap="butt" stroke-linejoin="miter"
      stroke-dasharray="" />
    <path name="drawing_line" d="M1044 407C1145 546 1359 546 1460 407" fill="#eee3d200"
      stroke="#8e5630ff" stroke-width="4" stroke-linecap="round" stroke-linejoin="miter"
      stroke-dasharray="36.3" />
    <circle name="drawing_left_point" cx="1165" cy="517" r="5.3" fill="#8e5630ff" stroke="#8e563000"
      stroke-width="0" stroke-linecap="round" stroke-dasharray="" />
    <circle name="drawing_center_point" cx="1252" cy="536" r="6" fill="#8e5630ff" stroke="#8e563000"
      stroke-width="0" stroke-linecap="round" stroke-dasharray="" />
    <circle name="drawing_right_point" cx="1339" cy="517" r="5.3" fill="#8e5630ff"
      stroke="#8e563000" stroke-width="0" stroke-linecap="round" stroke-dasharray="" />
    <g name="SOUP">
      <ellipse cx="1250" cy="352" rx="180" ry="125" fill="#A85F0C" />
      <ellipse cx="1250" cy="352" rx="185" ry="125" fill="url(#seeds)" />
    </g>
  </g>
  <path name="red_arrow"
    d="M1122.3999999999999 223.8C1039.8 139.5 913.1 119.2 754.9 185.2L727.6999999999999 101.8 642.6999999999999 262.90000000000003 801.6999999999999 314.3 777.6 245.7C904.1999999999999 210.6 1011.3000000000001 192.9 1090 285.79999999999995Z"
    fill="#ff0000ff" stroke="#ff0000ff" stroke-width="1" stroke-linecap="butt"
    stroke-linejoin="miter" stroke-dasharray="" />
</svg>